<svg id="visual" viewBox="0 0 900 600" width="900" height="600" xmlns="http://www.w3.org/2000/svg" xmlns:xlink="http://www.w3.org/1999/xlink" version="1.1"><rect x="0" y="0" width="900" height="600" fill="#009473"></rect><defs><linearGradient id="grad1_0" x1="33.3%" y1="100%" x2="100%" y2="0%"><stop offset="20%" stop-color="#fbae3c" stop-opacity="1"></stop><stop offset="80%" stop-color="#fbae3c" stop-opacity="1"></stop></linearGradient></defs><defs><linearGradient id="grad1_1" x1="33.3%" y1="100%" x2="100%" y2="0%"><stop offset="20%" stop-color="#fbae3c" stop-opacity="1"></stop><stop offset="80%" stop-color="#bfb034" stop-opacity="1"></stop></linearGradient></defs><defs><linearGradient id="grad1_2" x1="33.3%" y1="100%" x2="100%" y2="0%"><stop offset="20%" stop-color="#86ac45" stop-opacity="1"></stop><stop offset="80%" stop-color="#bfb034" stop-opacity="1"></stop></linearGradient></defs><defs><linearGradient id="grad1_3" x1="33.3%" y1="100%" x2="100%" y2="0%"><stop offset="20%" stop-color="#86ac45" stop-opacity="1"></stop><stop offset="80%" stop-color="#4fa25d" stop-opacity="1"></stop></linearGradient></defs><defs><linearGradient id="grad1_4" x1="33.3%" y1="100%" x2="100%" y2="0%"><stop offset="20%" stop-color="#009473" stop-opacity="1"></stop><stop offset="80%" stop-color="#4fa25d" stop-opacity="1"></stop></linearGradient></defs><defs><linearGradient id="grad2_0" x1="0%" y1="100%" x2="66.7%" y2="0%"><stop offset="20%" stop-color="#fbae3c" stop-opacity="1"></stop><stop offset="80%" stop-color="#fbae3c" stop-opacity="1"></stop></linearGradient></defs><defs><linearGradient id="grad2_1" x1="0%" y1="100%" x2="66.7%" y2="0%"><stop offset="20%" stop-color="#bfb034" stop-opacity="1"></stop><stop offset="80%" stop-color="#fbae3c" stop-opacity="1"></stop></linearGradient></defs><defs><linearGradient id="grad2_2" x1="0%" y1="100%" x2="66.7%" y2="0%"><stop offset="20%" stop-color="#bfb034" stop-opacity="1"></stop><stop offset="80%" stop-color="#86ac45" stop-opacity="1"></stop></linearGradient></defs><defs><linearGradient id="grad2_3" x1="0%" y1="100%" x2="66.7%" y2="0%"><stop offset="20%" stop-color="#4fa25d" stop-opacity="1"></stop><stop offset="80%" stop-color="#86ac45" stop-opacity="1"></stop></linearGradient></defs><defs><linearGradient id="grad2_4" x1="0%" y1="100%" x2="66.7%" y2="0%"><stop offset="20%" stop-color="#4fa25d" stop-opacity="1"></stop><stop offset="80%" stop-color="#009473" stop-opacity="1"></stop></linearGradient></defs><g transform="translate(900, 600)"><path d="M-486.7 0C-447.8 -50.5 -408.8 -101 -390.8 -161.9C-372.8 -222.8 -375.7 -294.1 -344.2 -344.2C-312.7 -394.3 -246.8 -423.2 -183.7 -443.5C-120.6 -463.7 -60.3 -475.2 0 -486.7L0 0Z" fill="#319b69"></path><path d="M-389.4 0C-358.2 -40.4 -327.1 -80.8 -312.6 -129.5C-298.2 -178.2 -300.5 -235.3 -275.3 -275.3C-250.1 -315.4 -197.4 -338.6 -147 -354.8C-96.5 -371 -48.2 -380.2 0 -389.4L0 0Z" fill="#6aa751"></path><path d="M-292 0C-268.7 -30.3 -245.3 -60.6 -234.5 -97.1C-223.7 -133.7 -225.4 -176.4 -206.5 -206.5C-187.6 -236.6 -148.1 -253.9 -110.2 -266.1C-72.4 -278.2 -36.2 -285.1 0 -292L0 0Z" fill="#a2af3b"></path><path d="M-194.7 0C-179.1 -20.2 -163.5 -40.4 -156.3 -64.8C-149.1 -89.1 -150.3 -117.6 -137.7 -137.7C-125.1 -157.7 -98.7 -169.3 -73.5 -177.4C-48.2 -185.5 -24.1 -190.1 0 -194.7L0 0Z" fill="#ddb034"></path><path d="M-97.3 0C-89.6 -10.1 -81.8 -20.2 -78.2 -32.4C-74.6 -44.6 -75.1 -58.8 -68.8 -68.8C-62.5 -78.9 -49.4 -84.6 -36.7 -88.7C-24.1 -92.7 -12.1 -95 0 -97.3L0 0Z" fill="#fbae3c"></path></g><g transform="translate(0, 0)"><path d="M486.7 0C488.4 72.1 490.1 144.1 449.7 186.3C409.3 228.4 326.9 240.6 277.9 277.9C228.9 315.2 213.3 377.7 172.6 416.7C131.8 455.7 65.9 471.2 0 486.7L0 0Z" fill="#319b69"></path><path d="M389.4 0C390.7 57.7 392.1 115.3 359.8 149C327.5 182.7 261.5 192.5 222.3 222.3C183.1 252.2 170.7 302.1 138.1 333.3C105.5 364.5 52.7 377 0 389.4L0 0Z" fill="#6aa751"></path><path d="M292 0C293 43.2 294 86.5 269.8 111.8C245.6 137 196.1 144.3 166.7 166.7C137.3 189.1 128 226.6 103.6 250C79.1 273.4 39.6 282.7 0 292L0 0Z" fill="#a2af3b"></path><path d="M194.7 0C195.4 28.8 196 57.7 179.9 74.5C163.7 91.4 130.8 96.2 111.2 111.2C91.6 126.1 85.3 151.1 69 166.7C52.7 182.3 26.4 188.5 0 194.7L0 0Z" fill="#ddb034"></path><path d="M97.3 0C97.7 14.4 98 28.8 89.9 37.3C81.9 45.7 65.4 48.1 55.6 55.6C45.8 63 42.7 75.5 34.5 83.3C26.4 91.1 13.2 94.2 0 97.3L0 0Z" fill="#fbae3c"></path></g></svg>