<svg id="visual" viewBox="0 0 900 600" width="900" height="600" xmlns="http://www.w3.org/2000/svg" xmlns:xlink="http://www.w3.org/1999/xlink" version="1.1"><path d="M0 368L21.5 366.5C43 365 86 362 128.8 364.2C171.7 366.3 214.3 373.7 257.2 381.7C300 389.7 343 398.3 385.8 403.2C428.7 408 471.3 409 514.2 408.2C557 407.3 600 404.7 642.8 396.3C685.7 388 728.3 374 771.2 365.7C814 357.3 857 354.7 878.5 353.3L900 352L900 601L878.5 601C857 601 814 601 771.2 601C728.3 601 685.7 601 642.8 601C600 601 557 601 514.2 601C471.3 601 428.7 601 385.8 601C343 601 300 601 257.2 601C214.3 601 171.7 601 128.8 601C86 601 43 601 21.5 601L0 601Z" fill="#d42cbb"></path><path d="M0 423L21.5 422.3C43 421.7 86 420.3 128.8 424.5C171.7 428.7 214.3 438.3 257.2 446.2C300 454 343 460 385.8 460.8C428.7 461.7 471.3 457.3 514.2 452.7C557 448 600 443 642.8 441.2C685.7 439.3 728.3 440.7 771.2 435.7C814 430.7 857 419.3 878.5 413.7L900 408L900 601L878.5 601C857 601 814 601 771.2 601C728.3 601 685.7 601 642.8 601C600 601 557 601 514.2 601C471.3 601 428.7 601 385.8 601C343 601 300 601 257.2 601C214.3 601 171.7 601 128.8 601C86 601 43 601 21.5 601L0 601Z" fill="#a91da9"></path><path d="M0 505L21.5 502.2C43 499.3 86 493.7 128.8 487.7C171.7 481.7 214.3 475.3 257.2 476.7C300 478 343 487 385.8 488C428.7 489 471.3 482 514.2 479.2C557 476.3 600 477.7 642.8 477.7C685.7 477.7 728.3 476.3 771.2 476.7C814 477 857 479 878.5 480L900 481L900 601L878.5 601C857 601 814 601 771.2 601C728.3 601 685.7 601 642.8 601C600 601 557 601 514.2 601C471.3 601 428.7 601 385.8 601C343 601 300 601 257.2 601C214.3 601 171.7 601 128.8 601C86 601 43 601 21.5 601L0 601Z" fill="#7f0d95"></path><path d="M0 545L21.5 546.2C43 547.3 86 549.7 128.8 551.3C171.7 553 214.3 554 257.2 549.5C300 545 343 535 385.8 529.2C428.7 523.3 471.3 521.7 514.2 527.3C557 533 600 546 642.8 547.5C685.7 549 728.3 539 771.2 537.5C814 536 857 543 878.5 546.5L900 550L900 601L878.5 601C857 601 814 601 771.2 601C728.3 601 685.7 601 642.8 601C600 601 557 601 514.2 601C471.3 601 428.7 601 385.8 601C343 601 300 601 257.2 601C214.3 601 171.7 601 128.8 601C86 601 43 601 21.5 601L0 601Z" fill="#560180"></path></svg>