<svg id="visual" viewBox="0 0 900 450" width="900" height="450" xmlns="http://www.w3.org/2000/svg" xmlns:xlink="http://www.w3.org/1999/xlink" version="1.1"><path d="M0 323L21.5 314.7C43 306.3 86 289.7 128.8 289.2C171.7 288.7 214.3 304.3 257.2 309.2C300 314 343 308 385.8 310.7C428.7 313.3 471.3 324.7 514.2 321.8C557 319 600 302 642.8 291.7C685.7 281.3 728.3 277.7 771.2 276C814 274.3 857 274.7 878.5 274.8L900 275L900 451L878.5 451C857 451 814 451 771.2 451C728.3 451 685.7 451 642.8 451C600 451 557 451 514.2 451C471.3 451 428.7 451 385.8 451C343 451 300 451 257.2 451C214.3 451 171.7 451 128.8 451C86 451 43 451 21.5 451L0 451Z" fill="#fb3f71"></path><path d="M0 299L21.5 306.3C43 313.7 86 328.3 128.8 334.3C171.7 340.3 214.3 337.7 257.2 340C300 342.3 343 349.7 385.8 352.8C428.7 356 471.3 355 514.2 353.5C557 352 600 350 642.8 350.5C685.7 351 728.3 354 771.2 347.3C814 340.7 857 324.3 878.5 316.2L900 308L900 451L878.5 451C857 451 814 451 771.2 451C728.3 451 685.7 451 642.8 451C600 451 557 451 514.2 451C471.3 451 428.7 451 385.8 451C343 451 300 451 257.2 451C214.3 451 171.7 451 128.8 451C86 451 43 451 21.5 451L0 451Z" fill="#ca266f"></path><path d="M0 367L21.5 361.3C43 355.7 86 344.3 128.8 345.3C171.7 346.3 214.3 359.7 257.2 366.8C300 374 343 375 385.8 369.2C428.7 363.3 471.3 350.7 514.2 344.5C557 338.3 600 338.7 642.8 346C685.7 353.3 728.3 367.7 771.2 366C814 364.3 857 346.7 878.5 337.8L900 329L900 451L878.5 451C857 451 814 451 771.2 451C728.3 451 685.7 451 642.8 451C600 451 557 451 514.2 451C471.3 451 428.7 451 385.8 451C343 451 300 451 257.2 451C214.3 451 171.7 451 128.8 451C86 451 43 451 21.5 451L0 451Z" fill="#981566"></path><path d="M0 400L21.5 399C43 398 86 396 128.8 393.5C171.7 391 214.3 388 257.2 386.5C300 385 343 385 385.8 383.3C428.7 381.7 471.3 378.3 514.2 374.5C557 370.7 600 366.3 642.8 368.8C685.7 371.3 728.3 380.7 771.2 384.3C814 388 857 386 878.5 385L900 384L900 451L878.5 451C857 451 814 451 771.2 451C728.3 451 685.7 451 642.8 451C600 451 557 451 514.2 451C471.3 451 428.7 451 385.8 451C343 451 300 451 257.2 451C214.3 451 171.7 451 128.8 451C86 451 43 451 21.5 451L0 451Z" fill="#670a57"></path><path d="M0 412L21.5 409.5C43 407 86 402 128.8 401.5C171.7 401 214.3 405 257.2 410.2C300 415.3 343 421.7 385.8 419.5C428.7 417.3 471.3 406.7 514.2 406.5C557 406.3 600 416.7 642.8 421.3C685.7 426 728.3 425 771.2 420.2C814 415.3 857 406.7 878.5 402.3L900 398L900 451L878.5 451C857 451 814 451 771.2 451C728.3 451 685.7 451 642.8 451C600 451 557 451 514.2 451C471.3 451 428.7 451 385.8 451C343 451 300 451 257.2 451C214.3 451 171.7 451 128.8 451C86 451 43 451 21.5 451L0 451Z" fill="#380442"></path></svg>