<svg id="visual" viewBox="0 0 900 600" width="900" height="600" xmlns="http://www.w3.org/2000/svg" xmlns:xlink="http://www.w3.org/1999/xlink" version="1.1"><path d="M0 175L21.5 178.7C43 182.3 86 189.7 128.8 186.8C171.7 184 214.3 171 257.2 175.3C300 179.7 343 201.3 385.8 203.3C428.7 205.3 471.3 187.7 514.2 177.3C557 167 600 164 642.8 166.5C685.7 169 728.3 177 771.2 177C814 177 857 169 878.5 165L900 161L900 0L878.5 0C857 0 814 0 771.2 0C728.3 0 685.7 0 642.8 0C600 0 557 0 514.2 0C471.3 0 428.7 0 385.8 0C343 0 300 0 257.2 0C214.3 0 171.7 0 128.8 0C86 0 43 0 21.5 0L0 0Z" fill="#d42cbb"></path><path d="M0 120L21.5 117.8C43 115.7 86 111.3 128.8 120C171.7 128.7 214.3 150.3 257.2 156.3C300 162.3 343 152.7 385.8 143.8C428.7 135 471.3 127 514.2 124.3C557 121.7 600 124.3 642.8 123.7C685.7 123 728.3 119 771.2 117.2C814 115.3 857 115.7 878.5 115.8L900 116L900 0L878.5 0C857 0 814 0 771.2 0C728.3 0 685.7 0 642.8 0C600 0 557 0 514.2 0C471.3 0 428.7 0 385.8 0C343 0 300 0 257.2 0C214.3 0 171.7 0 128.8 0C86 0 43 0 21.5 0L0 0Z" fill="#a91ca9"></path><path d="M0 98L21.5 92.7C43 87.3 86 76.7 128.8 74C171.7 71.3 214.3 76.7 257.2 83.5C300 90.3 343 98.7 385.8 95.7C428.7 92.7 471.3 78.3 514.2 74.2C557 70 600 76 642.8 82.2C685.7 88.3 728.3 94.7 771.2 97C814 99.3 857 97.7 878.5 96.8L900 96L900 0L878.5 0C857 0 814 0 771.2 0C728.3 0 685.7 0 642.8 0C600 0 557 0 514.2 0C471.3 0 428.7 0 385.8 0C343 0 300 0 257.2 0C214.3 0 171.7 0 128.8 0C86 0 43 0 21.5 0L0 0Z" fill="#7f0d95"></path></svg>